<?xml version="1.0" encoding="UTF-8"?>
<svg id="Layer_2" data-name="Layer 2" xmlns="http://www.w3.org/2000/svg" viewBox="0 0 4525.64 1502.63">
  <defs>
    <style>
      .cls-1 {
        fill: #c29f43;
      }

      .cls-2 {
        fill: #c09d40;
      }

      .cls-3 {
        fill: #c19d40;
      }

      .cls-4 {
        fill: #c19d41;
      }

      .cls-5 {
        fill: #1e6575;
      }

      .cls-6 {
        fill: #1d6475;
      }

      .cls-7 {
        fill: #1b6374;
      }

      .cls-8 {
        fill: #363f40;
      }
    </style>
  </defs>
  <g id="Layer_1-2" data-name="Layer 1">
    <g>
      <path class="cls-7" d="M2719.56,1497.35c53.27-207.42,106.51-414.85,159.95-622.23,2.53-9.8,3.91-19.48,3.81-29.54-.9-89.2-1.66-178.4-2.59-267.6-.19-17.96-1.14-35.92-1.27-53.88-.05-7.34-2.06-12.18-9.29-15.48-37.29-16.98-54.04-47.67-56.35-87.22-1.76-30.09,.77-59.92,9.07-88.98,11.39-39.89,32.57-72.75,69.96-93.14,6.65-3.63,9.44-8.28,9.24-15.77-.54-20.12-4.62-39.62-9.76-58.94-2.56-9.64-5.74-19.1-8.52-28.68-1.11-3.83-2.13-7.71-2.76-11.63-.74-4.56,1.69-7.75,6.1-8.74,8.01-1.8,15.97-1.16,23.67,1.3,6.64,2.12,11.62,6.51,13.89,13.33,1.89,5.68,3.28,11.52,5.32,17.14,4.07,11.24,8.03,22.54,12.77,33.5,4.24,9.81,10.58,18.4,17.69,26.45,6.13,6.94,12.98,10.51,22.7,9.57,14.66-1.42,29.26,.52,43.71,3.16,48.62,8.88,79.37,41.24,83.97,90.6,2.84,30.5,2.91,61.39-5.22,91.2-13.67,50.07-43.36,87.71-90.59,110.72-15.79,7.7-32.52,12.08-49.91,13.03-15.75,.86-14.61,2.72-14.62,16.81-.01,19.31-.08,38.62,.02,57.92,.3,59.91,.67,119.83,1,179.74,.02,3.99,.33,8.02-.06,11.98-1.15,11.66,3.53,20.19,12.33,27.73,12.12,10.38,23.18,22.01,35.16,32.57,6.07,5.35,6.25,10.34,3.2,17.38-23.25,53.72-46.13,107.6-69.21,161.39-57.96,135.1-116.15,270.1-173.74,405.36-9.47,22.24-21.04,42.92-35.46,62.11-1.38-.4-2.8-.79-4.22-1.17Zm338.56-1138.88c.16-34.88-5.75-59.09-21.4-80.23-18.71-25.28-49.23-35.72-79.71-27.88-17.13,4.41-32.17,12.7-45.1,24.56-37.1,34.02-53.6,76.93-52.69,126.61,.33,18.03,4.97,35.47,13.78,51.58,20.35,37.23,59.13,51.41,98.67,35.99,14.48-5.65,27.13-14.08,38.14-24.95,31.92-31.52,46.82-70.23,48.3-105.67Zm-99.5,519.79c-.14-11.12-9.01-20.21-20.04-20.54-11.86-.35-21.51,9.27-21.33,21.26,.18,11.3,8.82,20.14,20.04,20.48,11.96,.36,21.48-9.1,21.33-21.2Z"/>
      <path class="cls-1" d="M229.06,520.9c5.68-6.98,6.78-15.76,9.12-23.96,8.07-28.23,12.12-57.28,17.16-86.12,18.45-105.54,36.77-211.1,55.09-316.67,2.05-11.8,4.04-23.62,5.57-35.49,1.3-10.13-.12-11.65-10.9-10.79-11.27,.9-22.52,2.37-33.67,4.2-32.24,5.29-63.85,13-94.01,25.18-1.66,5.06,1.76,7.81,4.16,10.77,33.97,41.78,48.18,89.92,45.09,143.17-2.34,40.36-15.69,76.77-43.2,107.16-22.01,24.32-49.42,38.82-82.27,39.7-52.15,1.4-86.03-28.59-97.5-72.13-6.65-25.24-3.42-50.36,2.35-75.12,12.85-55.08,44.58-97.47,90.08-129.99,11.34-8.11,23.64-14.89,35.63-22.05,9.99-5.96,10.2-7.75,.29-14.95-12.96-9.41-26.78-17.4-41.38-24.02C65.7,28.45,39.6,20.75,12.66,15.74c-5.52-1.03-6.77-3.11-5.86-8.16C7.56,3.4,8.96-.21,14.17,0c2.65,.11,5.36,.18,7.94,.75,40.57,9.03,79.49,22.19,113.97,46.21,5.45,3.8,10.99,7.62,15.82,12.14,5.67,5.3,11.08,5.48,18.16,2.8,27.44-10.37,55.72-17.93,84.58-23.23,30.82-5.66,61.83-9.58,93.19-10.62,26.63-.89,53.21-1.69,79.87-.17,41.54,2.37,82.02,9.72,120.72,24.92,46.33,18.2,85.33,46.11,112.49,88.86,19.74,31.07,30.27,65.3,32.83,101.6,4.82,68.38-9.68,132.4-47.22,190.4-40.6,62.71-98.21,102.28-169.77,121.55-62.12,16.73-124.96,17.48-187.98,4.66-1.96-.4-4.09-.35-5.88-1.12-6.78-2.92-12.43-1.33-18.63,2.45-10.2,6.23-20.8,11.97-31.69,16.87-22.05,9.91-45.3,15.5-69.5,16.68-5.96,.29-8.24-2.48-8-8.59,.14-3.59,1.24-6.68,5.22-7.26,7.91-1.16,15.91-1.72,23.78-3.09,18.08-3.16,29.27-14.65,36.25-30.94,1.55-3.63,.33-6.64-2.81-8.49-5.16-3.03-10.6-5.58-15.86-8.44-35.05-19.1-64.65-44.45-87.95-76.94-4.25-5.93-7.95-12.29-11.54-18.66-3.02-5.37-2.37-7.15,2.34-9.58,6.38-3.29,8.57-3.04,11.88,1.86,2.98,4.41,5.6,9.06,8.59,13.46,22.96,33.75,52.97,59.51,89.12,78.27,4.66,2.42,9.13,5.64,14.96,4.51Zm143.85,31.57c28.86,.8,57.94-2.06,86.61-8.84,47.47-11.23,90.89-31.01,126.78-64.46,70.65-65.85,99.83-147.75,89.6-243.29-6.98-65.2-40.01-114.55-96.09-148.58-36.53-22.17-76.68-33.36-118.53-39.39-11.19-1.61-22.46-2.75-33.74-3.56-6.37-.46-7.63,1.03-9.02,7.83-1.07,5.22-2.07,10.46-2.87,15.72-8.02,52.62-16.15,105.23-23.94,157.89-9.64,65.18-20.93,130.07-33.18,194.8-8.12,42.9-26.65,80.7-57.99,111.72-2.36,2.34-4.76,4.71-6.7,7.38-1.19,1.65-.86,3.92,1.36,4.77,3.08,1.18,6.27,2.21,9.51,2.82,22.34,4.18,44.9,5.73,68.19,5.19ZM211.36,212.91c.89-10.41-1.7-24.2-4.83-37.75-6.53-28.26-19.21-53.69-37.76-76.05-11.81-14.23-12.2-14.18-28.06-6.18-14.27,7.21-27.89,15.53-40.55,25.26-39.16,30.08-67.39,67.7-78.32,116.64-4.78,21.4-8.41,43.01-2.75,65.03,7.73,30.06,25.09,51.79,55.79,58.96,29.84,6.98,58.17,1.46,82.63-18.37,16.28-13.19,28.89-29.31,37.44-48.45,10.69-23.97,16-49.14,16.42-79.08Z"/>
      <path class="cls-6" d="M2482.01,592.34c22.55,23.41,45.56,43.98,77.06,52.59,26.74,7.31,53.92,9.22,81.18,5.95,25.87-3.1,47.92-15.42,66.87-33.2,18.23-17.1,31.72-37.6,42.28-60.06,4.24-9.01,7.95-18.32,11.19-27.74,3.19-9.29,5.8-8.16,13.46-5.83,7.26,2.21,8.09,4.06,5.59,11.72-9.64,29.46-24.06,56.29-44.92,79.33-31.59,34.91-70.59,53.61-118.23,52.84-15.32-.25-30.52-1.03-45.75-3.49-29.14-4.71-54.6-16.56-76.44-36.26-7.91-7.13-15.55-14.57-23.28-21.89-3.28-3.1-6.8-3.75-10.86-1.55-3.51,1.9-7.05,3.77-10.68,5.41-47.2,21.31-96,25.63-146.3,13.58-13.75-3.29-26.38-9.02-37.8-17.45-29.77-21.96-26.02-66.05,3.97-84.62,10.97-6.79,22.95-10.79,35.5-12.65,18.53-2.75,37.22-2.79,55.73,.23,22.78,3.71,43.24,12.97,61.34,27.35,4.17,3.31,8.21,6.82,12.57,9.85,1.62,1.12,4.02,.46,5.03-1.5,1.2-2.34,2.03-4.89,2.77-7.43,6.93-23.68,11.17-47.94,15.37-72.19,16.38-94.4,32.47-188.84,48.91-283.23,4.58-26.31,12.2-51.78,23.81-75.94,28.41-59.06,76.03-90.76,140.54-98.07,28.6-3.24,57.15-3.7,85.31,3.82,47.58,12.71,78.76,42.66,93.91,89.37,6.21,19.15,9.05,38.85,8.91,58.97-.04,5.87-1.43,7.31-6.63,7.69-8.72,.63-11.06-.55-11.84-6.71-.91-7.26-1.29-14.59-2.09-21.86-2.06-18.71-7.05-36.59-16.16-53.12-22.64-41.11-58.41-58.78-104.33-56.23-37.02,2.06-63.66,20.97-80.8,53.66-10.35,19.76-15.33,41.08-18.4,62.9-11.87,84.36-26.6,168.23-42.34,251.93-3.32,17.65-7.1,35.22-10.34,52.88-10.11,55.12-35,101.52-79.87,136.27-1.03,.8-1.79,1.94-4.24,4.66Zm-127.46,22.89c10.67,.27,21.18-1.83,31.7-2.35,16.63-.83,27.14-9.09,34.7-22.76,2.57-4.64,5.06-9.32,7.62-13.97,2.53-4.57,2.43-8.55-1.59-12.51-32.28-31.79-70.3-46.83-115.85-39.71-12.59,1.97-24.58,5.85-34.37,14.51-17.21,15.22-17.6,38.52-1.01,54.33,7.37,7.02,16.28,11.49,25.84,14.48,17.21,5.38,34.93,7.8,52.95,7.97Z"/>
      <path class="cls-6" d="M4134.33,254.89c4.79-11.97,3.15-21.98,8.85-29.94,21.08-1.52,42.3-3,63.5-4.63,6.63-.51,13.23-1.51,19.85-2.18,5.16-.52,7.32,1.65,6.4,6.96-2.94,17.05-6.07,34.06-9.13,51.09-12.58,70.08-25.53,140.09-37.6,210.25-6.32,36.7-17.85,70.87-41.52,100.24-3.32,4.12-1.69,7.43,3.49,8.08,.66,.08,1.32,.18,1.98,.25,19.58,2.07,36.88-3.24,51.9-15.98,2.55-2.17,5.02-4.11,8.8-1.84,6.05,3.62,6.93,7.95,2.02,12.53-16.61,15.5-36.75,20.84-58.86,19.99-9.29-.36-19.17-3.8-27.64-1.54-8.44,2.25-15.25,10.2-23.12,15.11-35.6,22.2-74.78,30.74-116.33,29.56-13.97-.4-27.93-1.28-41.54-5.09-11-3.08-21.48-7.2-30.74-13.92-18.69-13.56-25.06-32.17-21.17-54.42,3.74-21.39,17.74-33.54,37.72-39.56,17.58-5.3,35.53-4.72,53.5-2.42,25.35,3.25,49.1,11.62,72.15,22.41,21.02,9.84,20.29,14.32,25.13-12.52,4.73-26.19,9.85-52.31,14.73-78.47,.48-2.57,.5-5.22,.73-7.77-4.74-2.12-6.03,1.61-7.73,3.85-6.04,8-12.6,15.52-20.18,22.08-16.21,14.02-34.84,21.78-56.53,21.55-14.71-.15-29.3-1.1-43.42-5.59-28.94-9.19-47.42-28.49-55.65-57.68-5.89-20.89-5.28-42.25-3.7-63.49,2.34-31.53,10.22-61.67,25.96-89.38,24.66-43.41,61.35-69.11,111.36-75.04,13.38-1.59,26.57-.88,39.67,2.3,15.4,3.74,28.29,11.37,38.15,23.9,2.4,3.05,4.81,6.08,8.97,11.32Zm-138.36,165.45c0,3.99-.14,7.99,.03,11.97,.48,11.95,.15,24.03,3.64,35.62,4.56,15.15,12.37,20.46,27.95,20.03,6.12-.17,11.81-1.74,17.34-4.16,9.31-4.06,17.26-10.1,23.91-17.64,21.48-24.37,36.88-52.07,43.62-84,4.67-22.1,8.39-44.41,12.26-66.68,2.55-14.64,1.56-29.15-3.03-43.36-6.71-20.77-20.63-33.57-41.96-38.44-19.08-4.36-28.3-1.15-39.59,14.63-8.19,11.44-13.82,24.22-18.6,37.38-15.81,43.5-23.96,88.44-25.58,134.64Zm-5.85,217.17c5.88-.54,13.9-.72,21.71-2.09,25.92-4.54,44.92-18.63,56.6-42.33,1.9-3.86,2.6-7.61-2.08-10.13-27.59-14.86-56.13-27.21-87.68-30.53-15.19-1.6-30.5-1.95-45.2,3.73-32.06,12.4-29.27,48-11.19,62.9,6.78,5.59,14.37,9.41,22.57,12.26,14,4.86,28.65,5.07,45.27,6.19Z"/>
      <path class="cls-2" d="M1615.95,265.88c6.39-1.38,6.99-6.76,9.32-10.47,6.42-10.18,13.21-19.99,22.26-28.06,21.03-18.76,46.04-26.06,73.7-25.02,8.61,.32,17.37,1.24,25.7,3.32,38.2,9.57,60.18,34.39,67.76,72.8,4.49,22.76,1.69,45.14-2.49,67.4-6.26,33.33-13.62,66.46-19.94,99.79-3.22,16.96-6.69,33.98-6.35,51.42,.08,4.25,2.47,5.99,6.37,5.02,10.69-2.65,19.06-9.11,27.25-16.06,4.28-3.63,7.7-2.91,12.19,1.29,2.83,2.65,3.57,5.71,1.27,8.79-5.31,7.11-12.54,12.06-20.52,15.47-26.92,11.49-54.35,11.84-81.7,1.75-16.83-6.2-26.94-18.98-31.8-36-3.52-12.33-4.03-24.91-2.61-37.61,2.89-25.81,7.32-51.35,12.33-76.82,5.91-30.01,13.18-59.79,15.42-90.44,.58-8,.9-15.96-.71-23.87-2.43-11.94-9.37-18.79-21.32-20.58-12.29-1.85-23.66,.28-34.19,7.5-14.13,9.69-24.11,22.89-32.46,37.38-17.76,30.82-29.89,63.79-36.28,98.82-6.57,35.99-13.05,72-19.56,108-.47,2.62-.99,5.25-1.19,7.9-.3,3.87-2.32,8.32,.82,11.46,3.98,3.98,9.08,1.65,12.88-.38,6.4-3.41,12.23-7.93,18.21-12.1,5.6-3.91,6.98-3.89,12.21,.27,3.09,2.45,4.15,5.39,1.52,8.46-10.82,12.59-24.78,20.53-40.82,23.38-16.48,2.93-33.19,2.19-49.32-3.42-26.44-9.2-42.11-30.69-43.18-58.72-.72-18.81,2.81-37.13,6.07-55.46,9.67-54.36,19.59-108.67,29.4-163,.24-1.31,.58-2.63,.59-3.95,.03-4.4,3.32-9.94-1.6-12.82-4.34-2.53-8.92,1.23-13.12,3.01-6.83,2.9-12.43,7.63-17.78,12.7-3.64,3.45-7.1,2.38-10.56-.56-4.25-3.62-4.77-6.32-1.5-9.95,9.62-10.69,21.45-18.18,35.29-21.56,18.48-4.51,36.99-3.48,55.09,2.67,21.25,7.22,34.5,21.84,40.04,43.5,1.24,4.86,2.21,9.8,3.3,14.73Z"/>
      <path class="cls-7" d="M3672.98,493.78c-25.27,35.88-80.62,30.97-104.59,13.62-16.98-12.29-24.83-29.37-24.5-49.88,.2-12.59,1.39-25.3,3.56-37.7,9.49-54.38,19.53-108.67,29.29-163,1.06-5.89,1.86-11.85,2.24-17.81,.2-3.15-2.42-4.62-5.34-4.19-10.34,1.54-18.21,7.55-25.72,14.34-4.47,4.04-10.07,3.03-13.02-2.19-.82-1.45-1.06-4.29-.18-5.47,4.42-5.92,10.05-10.63,16.51-14.24,28.1-15.73,56.25-13.8,83.8,.94,12.18,6.51,19.86,17.54,23.65,30.94,1.75,6.18,3.1,12.47,4.61,18.61,3.72,.04,4.66-2.73,6.07-4.87,4.01-6.11,7.59-12.55,11.98-18.36,15.1-19.98,34.88-32.16,59.85-36.31,19.57-3.25,38.56-1.63,57.04,4.87,34.6,12.15,51.62,38.17,55.73,73.42,2.88,24.75-1.01,49.12-5.92,73.32-7.01,34.54-15.46,68.8-20.26,103.76-1.17,8.55-1.74,17.19-2.16,25.82-.15,3.12,2.46,4.57,5.43,4.07,10.3-1.73,17.94-8.21,25.69-14.55,5.56-4.54,10.59-3.66,14.65,2.18,1.21,1.74,1.48,3.49,.18,5.34-3.91,5.57-9.01,9.85-14.96,12.97-27.64,14.47-56.27,15.24-84.85,3.95-18.18-7.18-27.83-22.11-30.34-41.38-2.35-17.99-.84-35.96,2.23-53.68,4.99-28.83,10.78-57.51,16.23-86.26,3.35-17.65,6.8-35.31,7.17-53.34,.12-5.95-.16-11.98-1-17.87-1.47-10.38-8.1-16.42-17.93-19.15-10.85-3.01-21.1-1.11-30.82,4.23-8.9,4.89-16.07,11.8-22.44,19.57-10.19,12.44-17.87,26.4-24.67,40.91-14.55,31.03-21.84,64.06-27.63,97.57-4.99,28.84-10.41,57.59-15.6,86.39-.47,2.61-.77,5.26-1,7.91-.34,3.94,2.27,5.92,6.26,4.91,8.55-2.17,15.9-6.49,22.76-11.97,9.17-7.32,9.29-7.18,18.01,2.58Z"/>
      <path class="cls-7" d="M3486.45,217.96c-1.52,24.6-7.47,47.69-11.44,71.04-4.12,24.26-8.5,48.47-12.76,72.71-4.14,23.58-8.29,47.15-12.4,70.73-4.07,23.36-8.73,46.64-12.19,70.96,13.38-.33,22.3-5.94,30.08-13.22,8.12-7.59,11.08-5.92,17.24,3.77-11.95,15.24-27.68,23.99-47.05,25.92-12.62,1.25-25.17,.68-37.59-2.84-21.58-6.12-36-19.29-42.28-41.02-.89-3.08-.61-6.69-5.1-9.62-4.94,2.51-7.01,8.27-10.25,12.71-13.78,18.94-31.18,32.84-54.3,38.21-23.16,5.38-46.33,4.91-68.69-3.83-34.17-13.36-49.8-40.34-53.42-75.38-2.28-22.08,1.23-43.81,5.48-65.4,6.68-33.92,13.7-67.77,20.05-101.75,1.95-10.41,2.32-21.13,3.14-31.73,.27-3.47-3.24-5.47-6.91-4.64-9.44,2.13-16.67,7.93-23.85,13.94-5.94,4.97-8.12,4.66-13.36-.32-3.06-2.92-2.82-5.74-.44-8.68,4.25-5.23,9.44-9.42,15.48-12.37,27.22-13.29,55.11-14.42,83.07-3.02,15.77,6.44,25.33,18.89,29.27,35.56,2.79,11.8,2.96,23.61,1.79,35.67-3.1,31.85-9.93,63.04-15.96,94.38-3.14,16.32-6.2,32.67-8.78,49.09-1.86,11.84-2.8,23.86-1.08,35.81,1.88,13.01,9.4,20.02,22.33,21.67,11.68,1.49,22.44-.7,32.14-7.76,8.71-6.34,16.17-13.89,22.22-22.73,17.48-25.52,29.98-53.08,35.39-83.82,8.64-49.11,18-98.1,26.82-147.18,1.59-8.84,1.75-11.03,12.72-10.99,26.52,.1,52.8-3.51,80.61-5.86Z"/>
      <path class="cls-3" d="M3297.13,806.2c-3.52-15.48-7.37-30.09-7.6-45.49-.46-30.95,8.08-59.06,24.05-85.22,2.43-3.97,5.05-7.83,7.73-11.64,2.89-4.1,3.52-8.08,1.65-13.05-2.32-6.17-4.22-12.58-2.96-19.49,4.44-24.35,30.47-37.77,51.91-24.6,7.44,4.57,12.81,4.1,20.09,.84,25.4-11.4,51.98-15.23,79.84-12.26,50.8,5.41,98.15,45.37,106.09,103.56,6.1,44.76-6.49,84.46-34.14,119.34-26.57,33.52-60.83,55.29-103.42,62.87-33.39,5.94-65.33,1.7-93.87-17.04-10.19-6.69-18.69-6.77-29.52-3.64-89.43,25.89-178.98,51.37-268.5,76.95-4.47,1.28-8.97,2.5-13.52,3.49-3.56,.77-4.55-1.73-4.65-4.55-.07-1.97,.18-4,.65-5.92,4.69-19.39,10.02-38.65,13.95-58.19,1.92-9.56,6.97-13.06,15.78-14.77,22.2-4.29,44.26-9.25,66.38-13.94,51.39-10.91,102.79-21.78,154.16-32.77,5.14-1.1,10.14-2.84,15.92-4.48Zm156.04-170.87c-5.29,.47-10.66,.53-15.87,1.47-51.02,9.14-100.46,52.77-106.03,114.74-2.77,30.84,11.9,65.34,43.91,80.92,22.17,10.79,45.3,12.15,67.96,5.18,52.32-16.08,85.51-51.5,93.45-105.91,8.84-60.59-37.5-97.4-83.42-96.4Z"/>
      <path class="cls-4" d="M955.14,402.43c-.19-24.84,5.04-48.92,10.45-72.96,4.68-20.77,9.74-41.46,14.06-62.31,2.42-11.71,3.83-23.64,5.37-35.52,.47-3.63,2.8-8.36-1.78-10.73-3.83-1.98-7.7,.59-11.32,2.27-11.77,5.47-20.81,14.13-28.84,24.12-3.31,4.11-5.72,3.95-10.13,.47-5.24-4.13-5.86-6.94-2.3-11.58,19.02-24.74,44.97-34.25,75.28-33.77,5.3,.08,10.67,.79,15.86,1.89,24.15,5.14,40.71,19.08,47.89,43,3.86,12.87,4.64,26.1,3.14,39.55-2.96,26.56-9.68,52.31-16.19,78.13-6.51,25.79-13.99,51.45-14.66,78.33-.18,7.3-.34,14.73,.79,21.9,3.5,22.06,18.72,35.5,41.04,36.27,17.72,.61,34.14-4.19,49.52-13.11,22.97-13.33,40.9-31.67,55.56-53.61,22.76-34.08,34.54-71.75,37.43-112.38,.37-5.25-.21-10.61-.84-15.86-.26-2.14-2.75-3.03-4.58-2.09-4.71,2.43-9.04,5.6-13.79,7.92-32.59,15.93-69.72,.69-81.35-33.28-9.34-27.29,3.65-58.2,29.77-70.84,25.55-12.36,56.58-4.16,72.72,19.15,7.77,11.23,11.59,24.03,13.82,37.16,9.9,58.47,.84,114.01-27.09,166.36-14.68,27.52-34.18,50.85-61.17,67.1-37.25,22.43-77.49,28.21-119.24,17.27-47.26-12.38-77.67-52.22-79.42-100.87-.14-3.99-.02-7.99-.02-11.99Z"/>
      <path class="cls-4" d="M2001.89,519.72c-20.12,.95-39.89-1.18-58.93-8.12-39.15-14.28-62.9-41.74-68.4-83.17-6.38-47.99,.57-94.53,22.27-137.85,26.55-52.99,70.53-81.45,129.59-87.17,20.76-2.01,41.22-1.44,61.42,3.6,40.18,10.04,59.88,34.84,59.98,75.74,.07,26.9-10.24,49.03-31.48,66-21.45,17.14-46.77,24.94-72.95,30.53-22.19,4.74-44.83,5.88-67.41,7.38-8.86,.59-10.66,2.1-11.18,10.6-1.17,19.22-3.21,38.37,.98,57.66,6.49,29.89,25.49,45.89,56.16,46.17,26.59,.25,49.45-9.13,69.19-26.52,15.72-13.86,27.33-30.8,36.11-49.74,1.68-3.62,3.2-7.32,4.97-10.89,1.6-3.21,3.74-5.15,7.86-3.65,6.74,2.46,9.03,4.76,7.75,9.47-4.59,16.91-12.5,32.29-23.16,46.08-25.49,32.96-59.61,50.18-100.81,53.77-7.27,.63-14.64,.09-21.96,.09Zm-33.83-153.85c3.12,.61,5.67,1.58,8.19,1.52,29.27-.72,58.3-3.52,86.53-11.76,12.14-3.54,23.59-8.67,34.3-15.6,29.36-19,35.81-54.6,25.17-82.73-6.59-17.42-19.4-28.7-37.48-32.5-17.36-3.65-34.33-1.47-49.89,8.14-17.44,10.78-30.23,25.85-39.93,43.56-15.16,27.69-23.25,57.55-26.88,89.38Z"/>
      <path class="cls-5" d="M4388.39,520.5c-18.42,.16-35.62-1.42-52.36-6.39-44.05-13.08-70.16-44.93-73.3-91.73-2.43-36.24,2.38-71.87,15.81-105.81,31.75-80.24,101.8-105.4,169.12-98.87,11.26,1.09,22.44,3.06,33.1,7.16,24.42,9.41,39.46,26.91,43.46,52.77,5.35,34.54-4.98,63.13-34.45,83.51-22.45,15.52-48.1,22.2-74.52,26.79-18.44,3.2-37.04,4.08-55.68,4.78-7.88,.3-9.28,1.68-9.51,9.52-.43,14.63-.44,29.28-.44,43.92,0,3.3,.5,6.65,1.15,9.9,6.63,33.12,30.13,50.06,63.68,46.09,27-3.2,49.25-15.29,67.32-35.45,11.69-13.03,20.43-27.85,27.43-43.8,3.14-7.16,5.19-8.45,9.68-6.94,6.12,2.07,8.17,5.89,5.81,12.48-13.19,36.84-36.53,64.51-73,80.24-20.54,8.86-42.09,12.16-63.29,11.82Zm-19.23-145.88c29-1.27,55.23-5.07,74.89-10.92,12.84-3.82,24.99-9.14,35.85-17.09,29.09-21.3,30.72-56.95,19.95-80.57-5.77-12.66-15.48-21.39-28.73-26.12-18.94-6.77-36.74-3.71-53.63,6.23-16.54,9.73-28.13,24.17-37.52,40.59-12.71,22.23-19.65,46.45-24.58,71.35-3.23,16.32-2.44,17.25,13.77,16.54Z"/>
      <path class="cls-3" d="M2847.87,900.81c-1.16,12.5-1.66,20.97-2.78,29.37-3.6,27.01-7.8,53.94-10.98,81-1.04,8.86-4.29,14.42-12.29,18.68-29.34,15.63-58.32,31.93-87.48,47.9-116.07,63.53-232.16,127.04-348.25,190.53-6.29,3.44-12.71,6.62-19.97,10.4,5.98-16.22,13.51-26.39,26.6-36.24,61.65-46.4,123.3-92.79,184.97-139.15,85.07-63.95,170.15-127.88,255.24-191.8,3.66-2.75,7.45-5.33,14.94-10.68Z"/>
      <path class="cls-2" d="M835.81,502.39c14.18-1.16,23.95-7.78,32.87-16.01,3.46-3.19,6.75-3.27,10.64-.62,5.27,3.59,6.09,7.04,2,11.18-11.04,11.17-24.2,19.07-39.6,21.75-16.5,2.87-33.15,2.17-49.23-3.47-28.29-9.91-45.55-32.45-43.42-68.3,1.54-25.9,7.32-51.26,12.01-76.73,8.31-45.06,16.7-90.11,24.99-135.18,1.63-8.86,.32-10.33-8.87-10.69-3.32-.13-6.65-.02-9.97-.08-1.99-.03-3.99-.12-5.97-.28-3.91-.33-5.92-2.4-5.72-6.44,.17-3.5,1.03-6.86,4.77-7.79,3.17-.78,6.59-.74,9.89-.77,11.97-.1,23.95,.18,35.91-.16,20.59-.59,41.23-.28,61.64-3.94,4.54-.82,9.27-.76,13.91-.81,4.18-.04,5.88,2.64,5.52,6.46-.49,5.28-1.11,10.58-2.06,15.8-16.4,89.5-32.87,178.98-49.28,268.48-.34,1.87-.04,3.87-.04,7.62Z"/>
      <path class="cls-2" d="M1432.49,206.3c-.74,5.76-1.27,12.24-2.42,18.6-9.75,53.63-19.62,107.23-29.46,160.84-5.88,32.04-11.91,64.04-17.52,96.13-.99,5.66-4.59,13.22,.3,17.06,6.78,5.32,13.67-.89,19.77-4.44,3.98-2.31,7.4-5.61,10.94-8.62,3.77-3.21,7.17-2.29,10.73,.37,4.38,3.27,5.04,6.24,1.71,9.88-11.15,12.21-25.05,20.16-41.17,22.76-16.52,2.67-33.22,1.92-49.25-3.97-27.31-10.03-41.74-32.65-42.05-57.26-.25-19.45,2.53-38.48,5.99-57.44,9.65-52.97,19.61-105.89,29.45-158.83,.36-1.96,.8-3.91,1.08-5.88,1.28-9.05-.06-10.8-8.78-11.18-5.32-.23-10.65-.09-15.96-.37-3.76-.2-6.15-2.12-5.95-6.27,.17-3.49,1.07-7.03,4.7-7.9,3.81-.92,7.91-.78,11.88-.84,17.3-.25,34.61-.67,51.91-.52,17.39,.16,34.46-2.79,51.69-4.24,3.84-.32,7.93-1.59,12.39,2.12Z"/>
      <path class="cls-3" d="M798.76,85.68c-1.76-28.38,23.28-58.44,57.72-58.51,32.78-.07,58.89,29.83,58.32,58.65-.63,31.92-27.22,58.56-59.36,57.49-35.59-1.19-57.75-29.74-56.68-57.63Z"/>
      <path class="cls-3" d="M1459.01,84.66c.33,32.27-25.59,58.58-57.87,58.75-31.43,.16-57.13-25.22-58.13-56.55-.97-30.46,25.3-59.43,57.02-59.68,34.31-.27,60.38,29.55,58.98,57.48Z"/>
      <path class="cls-8" d="M318.67,829.45c-6.93,2.2-14.11,1.11-22.4,.92-4.66-15.01,.31-30.46-3.26-45.63-15.09-2.43-30.3-1.06-45.46-.96-2.91,.02-4.87,2.01-4.93,5.02-.22,10.61-.17,21.23-.45,31.84-.22,8.2-1.65,9.62-8.9,10.01-17.46,.95-18.04,.52-18.09-16.64-.08-29.88-.08-59.75,.06-89.63,.04-8.07,1.09-8.8,9.38-9.09,17.44-.61,17.32-.59,17.68,17.1,.17,8.51-3.45,19.09,1.9,25.01,6.29,6.96,17.55,2.68,26.58,2.73,26.91,.18,23.16,2.81,23.53-22.96,.09-6.59,.01-13.19,.01-19.16,2.22-1.26,3.32-2.42,4.46-2.45,24.58-.54,21.72-2.64,21.84,20.22,.13,25.23,.1,50.46-.03,75.68-.03,5.89,1.19,11.97-1.91,17.96Z"/>
      <path class="cls-8" d="M2042.81,745.6c4.03-6.82,2.38-12.9,2.77-18.73,.39-5.86-.79-11.86,1.3-17.34,1.01-.45,1.6-.92,2.22-.95,25.09-1.53,21.76-2.34,21.89,19.62,.16,27.85,.05,55.7,.03,83.55,0,4.64,.13,9.31-.4,13.9-.18,1.56-2.01,3.96-3.38,4.19-6.44,1.06-13.79,3.23-19.01-1.4-3.9-3.46-6.35-2.73-10.12-1.21-4.26,1.71-8.67,3.51-13.17,4.09-25.49,3.31-46.28-12.34-50.01-37.27-4.09-27.29,11.83-49.55,37.9-53.74,10.42-1.68,19.47,2.91,29.96,5.3Zm3.29,41.26c.42-14.08-9.06-25.08-21.99-25.5-13.29-.42-23.04,9.52-23.44,23.93-.4,14.21,8.87,25.04,21.87,25.54,12.85,.5,23.13-9.97,23.55-23.97Z"/>
      <path class="cls-8" d="M1325.99,832.2c-13.58,.14-26.42-2.91-38.57-8.87-5.57-2.74-6.43-5.32-4.01-11.3,1-2.46,2.26-4.82,3.4-7.22,1.73-3.68,4.5-4.7,8.04-2.76,7.69,4.22,15.98,6.69,24.53,8.08,7.94,1.29,15.97,1.44,23.4-2.55,3-1.61,5.49-3.78,6.09-7.38,.78-4.61-1.69-8.07-5.32-9.72-6-2.72-12.42-4.54-18.72-6.56-7.58-2.43-15.41-4.18-22.79-7.09-11.42-4.51-18.41-12.87-19.17-25.57-.79-13.24,5.12-23.14,15.94-30.19,6.82-4.44,14.66-6.05,22.64-7.18,14.92-2.11,29.16,.51,42.98,5.92,5.7,2.23,6.44,4.72,4.09,10.95-.94,2.49-1.83,5.01-3.03,7.37-1.73,3.4-4.23,4.58-8.07,2.78-3.6-1.69-7.4-3.1-11.25-4.07-8.5-2.13-17.16-2.41-25.74-.59-6.02,1.28-9.85,5.73-10.11,10.8-.29,5.67,3.39,8.68,7.88,10.26,6.88,2.41,14.09,3.87,21.06,6.04,6.96,2.16,14.22,3.88,20.62,7.2,19.09,9.91,22.21,33.49,6.81,48.68-7.94,7.83-17.88,11.29-28.75,12.36-3.97,.39-7.98,.41-11.96,.6Z"/>
      <path class="cls-8" d="M2454.68,831.74c-35.95-.24-58.55-33-44.44-64.55,7.57-16.92,21.84-24.84,39.33-26.81,26.96-3.03,58.65,14.68,53.53,53.03-3.08,23.05-22.66,38.51-48.43,38.33Zm-.22-70.29c-13.25,.44-22.13,10.75-21.81,25.33,.31,14.24,10.35,24.62,23.28,24.09,12.8-.53,22.35-11.6,22.03-25.54-.33-14.11-10.36-24.32-23.49-23.88Z"/>
      <path class="cls-8" d="M559.25,800.81c0,4.65,.05,9.3,0,13.95-.19,16.38-6.31,20.69-22.24,13.7-4.06-1.78-6.59-2.85-10.14-.83-7.93,4.52-16.51,4.42-25.21,3.81-5.48-.38-10.42-2.4-14.85-5.32-8.46-5.58-12.4-13.68-11.57-23.81,.77-9.48,6.08-15.72,14.47-19.9,5.55-2.77,11.43-3.39,17.4-3.74,6.63-.38,13.28-.31,19.91-.7,4.23-.25,6.04-5.22,3.6-8.92-4.59-6.97-11.62-8.79-19.09-8.05-5.85,.58-11.59,2.6-17.29,4.29-6.82,2.03-7.68,1.89-10.79-4.03-1.23-2.34-2.41-4.76-3.19-7.27-.6-1.96,.12-3.87,1.94-5.16,15-10.66,45.58-11.81,61.06-2.34,9.91,6.06,14.65,15.37,15.51,26.44,.72,9.24,.15,18.58,.15,27.88,.12,0,.24,0,.36,0Zm-25.46-2.23c-.69-1.06-1.4-3.61-2.73-3.99-9.02-2.52-18.09-2.71-26.67,1.73-3.99,2.06-5.08,8.48-2.4,12,4.56,5.99,10.79,7.05,17.61,5.56,7.92-1.73,13.11-7.3,14.19-15.31Z"/>
      <path class="cls-8" d="M1822.51,786.52c0,12.6,.08,25.21-.05,37.81-.04,3.8-2.23,6.26-6.18,6.18-5.27-.11-10.53-.62-15.79-.96-2.86-8.64-7.78-4.21-12.28-1.89-7.36,3.79-15.18,4.55-23.25,3.71-16.95-1.76-29.1-11.99-30.53-28.84-1.56-18.45-.79-37.1-.85-55.66-.01-3.03,2.46-4.71,5.24-4.87,4.62-.27,9.28-.18,13.91,.04,3.88,.19,5.93,2.5,5.95,6.41,.05,10.62,.02,21.23,.11,31.85,.04,4.64-.15,9.34,.52,13.9,1.32,9.06,7.29,14.43,15.88,15.01,8.75,.6,16.14-3.6,19.22-11.2,2.28-5.61,2.91-11.52,2.84-17.56-.12-9.29-.14-18.58,.01-27.87,.17-10.14,.99-10.81,11.74-10.84,2.65,0,5.31,.08,7.94,.31,3.99,.35,5.7,2.85,5.71,6.63,.03,12.61,.01,25.21,.01,37.82-.05,0-.1,0-.16,0Z"/>
      <path class="cls-8" d="M1529.01,741.97c.34-1.27,.7-2.54,1-3.83,1.15-4.93-2.45-11.92,2.99-14.56,5.81-2.82,13-1.69,19.52-.34,1.9,.39,2.95,2.34,2.99,4.54,.06,3.31,.17,6.62,.39,9.92,.27,3.99,2.73,5.64,6.5,5.75,1.32,.04,2.66,.17,3.97,.09,12.83-.8,12.19,4.23,11.36,14.92-.25,3.17-2.53,4.26-5.33,4.76-5.13,.92-10.68-.95-16.7,3.19,0,9.63-.32,20.13,.09,30.61,.42,10.76,3.52,13.45,14.7,13.64,2.58,.05,5.85-1.35,7.35,1.03,2.43,3.84,5.09,8.01,4.5,12.86-.18,1.51-2.07,3.41-3.62,4.06-11.62,4.81-23.27,4.7-34.49-1.2-9.01-4.73-13.26-12.82-13.68-22.69-.47-11.24-.32-22.51-.41-33.77-.03-3.59-.99-6.39-5.08-7.11-2.53-.45-5.89-.13-6.95-2.85-1.14-2.94-1.33-6.32-1.52-9.53-.45-7.57,5.42-7.78,10.58-8.75,.63-.12,1.22-.48,1.83-.72Z"/>
      <path class="cls-8" d="M955.29,761.37c-1.26,1.01-1.73,1.69-2.31,1.81-23.32,4.88-25.83,7.89-26.08,31.73-.1,9.3,.11,18.61-.16,27.9-.18,6.27-1.96,7.67-8.79,7.96-2.65,.11-5.32,.13-7.97,.03-7.51-.28-9.27-1.74-9.33-9.58-.18-23.91-.04-47.83-.07-71.75,0-4.77,2.2-7.52,6.98-7.74,3.97-.19,8.03-.46,11.94,.1,15.9,2.28,15.88,2.38,24.25-.09,1.9-.56,3.85-1.03,5.8-1.33,3.04-.47,5.46,.82,5.64,3.89,.34,5.88,.1,11.78,.1,17.08Z"/>
      <path class="cls-8" d="M742.87,785.53c0,12.62,.05,25.24-.03,37.86-.03,4.77-2.62,7.25-7.41,7.34-3.32,.06-6.65,.18-9.97,.04-6.74-.28-8.51-1.73-8.72-8.13-.29-8.63-.14-17.27-.15-25.9,0-15.28-.1-30.56,.08-45.83,.09-7.59,1.77-9,9.53-9.31,1.99-.08,3.99-.06,5.98,0,9.35,.26,10.56,1.24,10.7,10.07,.17,11.29,.04,22.58,.04,33.88h-.07Z"/>
      <path class="cls-8" d="M2254.82,787.38c0,11.95,.08,23.9-.04,35.84-.05,4.59-2.24,7.39-7.26,7.41-17.35,.08-18.09,1.54-17.95-16.83,.16-21.24-.02-42.48,.14-63.72,.05-6.65,1.64-7.99,8.31-8.25,3.31-.13,6.64-.01,9.95,.06,4.99,.1,6.89,2.98,6.88,7.65-.03,12.61-.01,25.22-.01,37.84h-.02Z"/>
      <path class="cls-8" d="M2242.39,700.59c8.81,.25,16.15,7.18,15.65,14.76-.54,8.17-7.56,14.07-16.5,13.88-9.33-.2-15.73-6.25-15.46-14.6,.26-7.96,7.61-14.29,16.31-14.04Z"/>
      <path class="cls-8" d="M745.64,715.49c-.7,8.82-8.7,14.64-18.55,13.5-8.3-.96-13.49-6.66-13.21-14.51,.28-7.9,7.72-14.25,16.3-13.92,8.48,.33,16.04,7.63,15.47,14.93Z"/>
      <path class="cls-1" d="M2719.56,1497.35c1.42,.38,2.84,.76,4.22,1.17-.71,2.2-1.08,4.99-4.29,3.86-.5-.18,.02-3.28,.07-5.03Z"/>
    </g>
  </g>
</svg>