<?xml version="1.0" encoding="UTF-8"?>
<svg id="Layer_2" data-name="Layer 2" xmlns="http://www.w3.org/2000/svg" xmlns:xlink="http://www.w3.org/1999/xlink" viewBox="0 0 547.1 1402.37">
  <defs>
    <style>
      .cls-1 {
        letter-spacing: -.09em;
      }

      .cls-2 {
        fill: url(#linear-gradient);
      }

      .cls-3 {
        clip-path: url(#clippath);
      }

      .cls-4 {
        clip-rule: evenodd;
        fill: none;
      }

      .cls-5 {
        clip-path: url(#clippath-1);
      }

      .cls-6 {
        clip-path: url(#clippath-3);
      }

      .cls-7 {
        clip-path: url(#clippath-2);
      }

      .cls-8 {
        fill: #ebc766;
        font-family: Avenir-Black, Avenir;
        font-size: 150px;
      }

      .cls-9 {
        fill: url(#linear-gradient-3);
      }

      .cls-10 {
        fill: url(#linear-gradient-4);
      }

      .cls-11 {
        fill: url(#linear-gradient-2);
      }
    </style>
    <clipPath id="clippath">
      <path class="cls-4" d="M292.06,72.87h-37.02s0,75.59,0,75.59h37.02s0-75.59,0-75.59ZM243.19,0h60.73c16.82,0,32.08,6.86,43.12,17.9,11.04,11.04,17.89,26.3,17.89,43.12v123.87s0,36.43,0,36.43h-36.43s-109.89,0-109.89,0h-36.44s0-36.43,0-36.43V61.01c0-16.82,6.86-32.08,17.9-43.12C211.11,6.86,226.38,0,243.19,0Z"/>
    </clipPath>
    <linearGradient id="linear-gradient" x1="202.62" y1="265.9" x2="321.25" y2="6.62" gradientTransform="translate(-.11 .03)" gradientUnits="userSpaceOnUse">
      <stop offset="0" stop-color="#fffb90"/>
      <stop offset=".13" stop-color="#fbec7a"/>
      <stop offset=".24" stop-color="#f8dc65"/>
      <stop offset=".33" stop-color="#c8a443"/>
      <stop offset=".49" stop-color="#996c22"/>
      <stop offset=".62" stop-color="#caaa4d"/>
      <stop offset=".69" stop-color="#fbe878"/>
      <stop offset=".73" stop-color="#fdf491"/>
      <stop offset=".77" stop-color="#ffa"/>
      <stop offset=".8" stop-color="#fdf491"/>
      <stop offset=".83" stop-color="#fbe878"/>
      <stop offset=".92" stop-color="#d0a549"/>
      <stop offset="1" stop-color="#a4631b"/>
    </linearGradient>
    <clipPath id="clippath-1">
      <path class="cls-4" d="M342.19,221.32H204.91s0,125.73,0,125.73h137.27s0-125.73,0-125.73Zm-142.39-72.87h155.68c16.42,0,31.32,6.69,42.09,17.47,10.78,10.79,17.47,25.68,17.47,42.09v175.47s0,36.43,0,36.43h-36.44s-210.13,0-210.13,0h-36.44s0-36.43,0-36.43V216.21c0-18.67,7.62-35.62,19.88-47.88,12.26-12.26,29.21-19.87,47.87-19.87Z"/>
    </clipPath>
    <linearGradient id="linear-gradient-2" x1="157.53" y1="485.32" x2="341.23" y2="167.12" xlink:href="#linear-gradient"/>
    <clipPath id="clippath-2">
      <path class="cls-4" d="M161.26,347.05h224.58c18.97,0,36.24,7.78,48.77,20.3l.14,.15c12.53,12.53,20.31,29.79,20.31,48.76v32.78s0,36.43,0,36.43h-36.43s-290.13,0-290.13,0h-36.43s0-36.43,0-36.43v-32.78c0-19.06,7.78-36.38,20.3-48.91,12.52-12.52,29.83-20.3,48.9-20.3"/>
    </clipPath>
    <linearGradient id="linear-gradient-3" x1="81.35" y1="548.7" x2="316.8" y2="386.52" xlink:href="#linear-gradient"/>
    <clipPath id="clippath-3">
      <path class="cls-4" d="M273.55,511.71h-115.66s-36.74,26.75-36.74,26.75l259.16,2.29,70.6,50.64-3.61,675.59-81.3,36.25-92.47-.6,.02,26.89h91.54s109.15-49.62,109.15-49.62V573.61s-85.03-61.9-85.03-61.9h-36.09s-79.57,0-79.57,0Zm-127.24-72.87h127.24s127.24,0,127.24,0h11.57s9.78,7.12,9.78,7.12l109.89,80,15.08,10.99v18.33s0,748.01,0,748.01v23.4s-21.49,9.76-21.49,9.76l-137.83,62.66-7.2,3.27h-7.75s-99.28,0-99.28,0h-99.28s-7.75,0-7.75,0l-7.2-3.27-137.84-62.66L0,1326.68v-23.4S0,555.28,0,555.28v-18.33s15.09-10.99,15.09-10.99l109.89-80,9.77-7.12h11.58Z"/>
    </clipPath>
    <linearGradient id="linear-gradient-4" x1="73.88" y1="1556.56" x2="428.73" y2="426.94" xlink:href="#linear-gradient"/>
  </defs>
  <g id="Layer_1-2" data-name="Layer 1">
    <g class="cls-3">
      <rect class="cls-2" x="182.18" y="0" width="182.75" height="221.32"/>
    </g>
    <g class="cls-5">
      <rect class="cls-11" x="132.05" y="148.45" width="283" height="271.46"/>
    </g>
    <g class="cls-7">
      <rect class="cls-9" x="92.06" y="347.05" width="362.99" height="138.42"/>
    </g>
    <g class="cls-6">
      <rect class="cls-10" x="0" y="438.84" width="547.1" height="963.54"/>
    </g>
    <text/>
    <text class="cls-8" transform="translate(228.73 580.47) rotate(90)"><tspan x="0" y="0">OILIX</tspan><tspan class="cls-1" x="402.44" y="0">A</tspan><tspan x="499.79" y="0">TE</tspan></text>
  </g>
</svg>