<?xml version="1.0" encoding="UTF-8"?>
<svg id="Layer_2" data-name="Layer 2" xmlns="http://www.w3.org/2000/svg" xmlns:xlink="http://www.w3.org/1999/xlink" viewBox="0 0 1780 1780">
  <defs>
    <style>
      .cls-1 {
        letter-spacing: -.09em;
      }

      .cls-2 {
        fill: url(#linear-gradient);
      }

      .cls-3 {
        clip-path: url(#clippath);
      }

      .cls-4 {
        fill: #15292c;
      }

      .cls-5 {
        clip-rule: evenodd;
        fill: none;
      }

      .cls-6 {
        clip-path: url(#clippath-1);
      }

      .cls-7 {
        clip-path: url(#clippath-3);
      }

      .cls-8 {
        clip-path: url(#clippath-2);
      }

      .cls-9 {
        fill: #ebc766;
        font-family: Avenir-Black, Avenir;
        font-size: 150px;
      }

      .cls-10 {
        fill: url(#linear-gradient-3);
      }

      .cls-11 {
        fill: url(#linear-gradient-4);
      }

      .cls-12 {
        fill: url(#linear-gradient-2);
      }
    </style>
    <clipPath id="clippath">
      <path class="cls-5" d="M908.51,261.68h-37.02s0,75.59,0,75.59h37.02s0-75.59,0-75.59Zm-48.88-72.87h60.73c16.82,0,32.08,6.86,43.12,17.9,11.04,11.04,17.89,26.3,17.89,43.12v123.87s0,36.43,0,36.43h-36.43s-109.89,0-109.89,0h-36.44s0-36.43,0-36.43v-123.87c0-16.82,6.86-32.08,17.9-43.12,11.04-11.04,26.31-17.9,43.12-17.9Z"/>
    </clipPath>
    <linearGradient id="linear-gradient" x1="842.47" y1="454.72" x2="961.09" y2="195.44" gradientTransform="translate(-23.51 .03)" gradientUnits="userSpaceOnUse">
      <stop offset="0" stop-color="#fffb90"/>
      <stop offset=".13" stop-color="#fbec7a"/>
      <stop offset=".24" stop-color="#f8dc65"/>
      <stop offset=".33" stop-color="#c8a443"/>
      <stop offset=".49" stop-color="#996c22"/>
      <stop offset=".62" stop-color="#caaa4d"/>
      <stop offset=".69" stop-color="#fbe878"/>
      <stop offset=".73" stop-color="#fdf491"/>
      <stop offset=".77" stop-color="#ffa"/>
      <stop offset=".8" stop-color="#fdf491"/>
      <stop offset=".83" stop-color="#fbe878"/>
      <stop offset=".92" stop-color="#d0a549"/>
      <stop offset="1" stop-color="#a4631b"/>
    </linearGradient>
    <clipPath id="clippath-1">
      <path class="cls-5" d="M958.64,410.13h-137.27s0,125.73,0,125.73h137.27s0-125.73,0-125.73Zm-142.39-72.87h155.68c16.42,0,31.32,6.69,42.09,17.47,10.78,10.79,17.47,25.68,17.47,42.09v175.47s0,36.43,0,36.43h-36.44s-210.13,0-210.13,0h-36.44s0-36.43,0-36.43v-167.28c0-18.67,7.62-35.62,19.88-47.88,12.26-12.26,29.21-19.87,47.87-19.87Z"/>
    </clipPath>
    <linearGradient id="linear-gradient-2" x1="797.37" y1="674.14" x2="981.07" y2="355.93" xlink:href="#linear-gradient"/>
    <clipPath id="clippath-2">
      <path class="cls-5" d="M777.71,535.86h224.58c18.97,0,36.24,7.78,48.77,20.3l.14,.15c12.53,12.53,20.31,29.79,20.31,48.76v32.78s0,36.43,0,36.43h-36.43s-290.13,0-290.13,0h-36.43s0-36.43,0-36.43v-32.78c0-19.06,7.78-36.38,20.3-48.91,12.52-12.52,29.83-20.3,48.9-20.3"/>
    </clipPath>
    <linearGradient id="linear-gradient-3" x1="721.19" y1="737.51" x2="956.64" y2="575.33" xlink:href="#linear-gradient"/>
    <clipPath id="clippath-3">
      <path class="cls-5" d="M890,700.52h-115.66s-36.74,26.75-36.74,26.75l259.16,2.29,70.6,50.64-3.61,675.59-81.3,36.25-92.47-.6,.02,26.89h91.54s109.15-49.62,109.15-49.62V762.42s-85.03-61.9-85.03-61.9h-36.09s-79.57,0-79.57,0Zm-127.24-72.87h127.24s127.24,0,127.24,0h11.57s9.78,7.12,9.78,7.12l109.89,80,15.08,10.99v18.33s0,748.01,0,748.01v23.4s-21.49,9.76-21.49,9.76l-137.83,62.66-7.2,3.27h-7.75s-99.28,0-99.28,0h-99.28s-7.75,0-7.75,0l-7.2-3.27-137.84-62.66-21.48-9.76v-23.4s0-748.01,0-748.01v-18.33s15.09-10.99,15.09-10.99l109.89-80,9.77-7.12h11.58Z"/>
    </clipPath>
    <linearGradient id="linear-gradient-4" x1="713.73" y1="1745.37" x2="1068.57" y2="615.76" xlink:href="#linear-gradient"/>
  </defs>
  <g id="Layer_1-2" data-name="Layer 1">
    <circle class="cls-4" cx="890" cy="890" r="890"/>
    <g>
      <g class="cls-3">
        <rect class="cls-2" x="798.62" y="188.81" width="182.75" height="221.32"/>
      </g>
      <g class="cls-6">
        <rect class="cls-12" x="748.5" y="337.27" width="283" height="271.46"/>
      </g>
      <g class="cls-8">
        <rect class="cls-10" x="708.51" y="535.86" width="362.99" height="138.42"/>
      </g>
      <g class="cls-7">
        <rect class="cls-11" x="616.45" y="627.65" width="547.1" height="963.54"/>
      </g>
      <text/>
      <text class="cls-9" transform="translate(845.18 769.28) rotate(90)"><tspan x="0" y="0">OILIX</tspan><tspan class="cls-1" x="402.44" y="0">A</tspan><tspan x="499.79" y="0">TE</tspan></text>
    </g>
  </g>
</svg>