<svg width="24" height="12" viewBox="0 0 24 12" fill="none" xmlns="http://www.w3.org/2000/svg">
<path d="M11.5144 0.298272L11.5144 0.298293L11.516 0.296191C11.7066 0.0345783 12.132 0.0345783 12.3226 0.296191L12.3226 0.296211L12.3242 0.298272L15.1135 3.92458L15.1138 3.92505L16.7042 6.01789L16.7035 6.01847L16.7133 6.02823C17.0103 6.32412 17.2992 6.64243 17.5989 6.97272C18.9306 8.43994 20.4766 10.1434 23.9 11.1679V11.8939L0.1 11.8939L0.1 11.1681C3.47411 10.1665 5.01111 8.48557 6.3345 7.03826C6.3765 6.99233 6.41828 6.94663 6.4599 6.9012L6.46021 6.90149L6.46575 6.8942L8.7248 3.92505L8.72512 3.92463L11.5144 0.298272Z" fill="#2B4447" stroke="#ECE8DF" stroke-width="0.2"/>
</svg>
